<?xml version="1.0" encoding="UTF-8"?>
<svg id="Layer_1" data-name="Layer 1" xmlns="http://www.w3.org/2000/svg" viewBox="0 0 2203.99 830.31">
  <defs>
    <style>
      .cls-1 {
        fill: #fff;
        font-family: NeueKabel-Medium, 'Neue Kabel';
        font-size: 409.68px;
        font-weight: 500;
      }

      .cls-2 {
        fill: #df653a;
      }
    </style>
  </defs>
  <g id="A6yUk0.tif">
    <g>
      <path class="cls-2" d="M333.75,474.64c-37.54,40.06-120.68,97.23-126.26,154.24-1.28,13.12,3.46,24.19,1.18,36.78-43.79-47.62-70.84-105.14-36.53-167.14,31.28-56.52,128.18-114.65,138.21-173.48,1.12-6.54,3.6-46.91-7.8-31.54-4.1,5.54-6.71,14.96-11.03,21.62-36.96,56.79-102.09,85.82-140.18,141.81-20.72,30.45-31.63,64.83-30.26,101.87-44.73-57.26-49.6-127.38-14.23-190.91,36.08-64.81,100.4-105.94,147.89-160.82,24.78-28.64,49.52-62.65,41.51-102.5,29.05,29.05,57.26,63.13,77.64,98.94,60.63,106.56,40.3,185.27-40.13,271.12Z"/>
      <path class="cls-2" d="M407.54,561.81c-38,43.47-92.04,78.53-127.69,121.64-9.71,11.75-20.57,25.9-22.25,41.61-4.33,4.47-12.68-14.46-13.96-17.2-60.53-129.93,154.78-210.69,185.47-320.43l12.49-51.27c44.59,84.45,26.05,156.92-34.05,225.65Z"/>
    </g>
  </g>
  <text class="cls-1" transform="translate(556.33 577.96)"><tspan x="0" y="0">MediFire</tspan></text>
</svg>